inDegrees=no
num_controls=7
num_derivatives=13
num_iterations=142
num_multipliers=7
num_parameters=0
num_slacks=7
num_states=26
objective=0.545133
objective_accelerations=0.042087
objective_balance=0.003878
objective_effort=0.041070
objective_height=0.448644
objective_ligament=0.009453
solver_duration=1709.147549
status=Solve_Succeeded
success=true
DataType=double
version=3
OpenSimVersion=4.5
endheader
time	/jointset/ground_pelvis/pelvis_tilt/value	/jointset/ground_pelvis/pelvis_tx/value	/jointset/ground_pelvis/pelvis_ty/value	/jointset/hip_r/hip_flexion_r/value	/jointset/hip_r/hip_adduction_r/value	/jointset/hip_r/hip_rotation_r/value	/jointset/back/lumbar_extension/value	/jointset/patellofemoral_r/patellar_flexion_r/value	/jointset/knee_r/knee_flexion_r/value	/jointset/knee_r/knee_adduction_r/value	/jointset/knee_r/knee_rotation_r/value	/jointset/ankle_r/ankle_angle_r/value	/jointset/subtalar_r/subtalar_angle_r/value	/jointset/ground_pelvis/pelvis_tilt/speed	/jointset/ground_pelvis/pelvis_tx/speed	/jointset/ground_pelvis/pelvis_ty/speed	/jointset/hip_r/hip_flexion_r/speed	/jointset/hip_r/hip_adduction_r/speed	/jointset/hip_r/hip_rotation_r/speed	/jointset/back/lumbar_extension/speed	/jointset/patellofemoral_r/patellar_flexion_r/speed	/jointset/knee_r/knee_flexion_r/speed	/jointset/knee_r/knee_adduction_r/speed	/jointset/knee_r/knee_rotation_r/speed	/jointset/ankle_r/ankle_angle_r/speed	/jointset/subtalar_r/subtalar_angle_r/speed	/forceset/tau_hip_flexion_r	/forceset/tau_hip_adduction_r	/forceset/tau_hip_rotation_r	/forceset/tau_knee_flexion_r	/forceset/tau_ankle_angle_r	/forceset/tau_subtalar_angle_r	/forceset/tau_lumbar_extension	lambda_cid13_p0	lambda_cid14_p0	lambda_cid14_p1	lambda_cid14_p2	lambda_cid14_p3	lambda_cid14_p4	lambda_cid14_p5	/jointset/ground_pelvis/pelvis_tilt/accel	/jointset/ground_pelvis/pelvis_tx/accel	/jointset/ground_pelvis/pelvis_ty/accel	/jointset/hip_r/hip_flexion_r/accel	/jointset/hip_r/hip_adduction_r/accel	/jointset/hip_r/hip_rotation_r/accel	/jointset/back/lumbar_extension/accel	/jointset/patellofemoral_r/patellar_flexion_r/accel	/jointset/knee_r/knee_flexion_r/accel	/jointset/knee_r/knee_adduction_r/accel	/jointset/knee_r/knee_rotation_r/accel	/jointset/ankle_r/ankle_angle_r/accel	/jointset/subtalar_r/subtalar_angle_r/accel	gamma_cid13_p0	gamma_cid14_p0	gamma_cid14_p1	gamma_cid14_p2	gamma_cid14_p3	gamma_cid14_p4	gamma_cid14_p5
1	-0.4081631160572357	-0.04907449923556739	0.7000932970979152	1.483029026714479	-0.2307376270246051	-0.06200874961186485	-0.4363305555308065	1.165657509908714	1.165657509908802	-0.02857170090838516	0.1745327069534506	0.2785903021655361	0.05894947225730714	-0.001127603732765977	0.002745919053061401	0.01357567779173776	-0.03676945376855426	0.001298287357562746	-0.0095574630256545	-2.107939565435513e-05	-0.04647064546099337	-0.04647064546099303	0.001415575044520613	2.195079243808128e-06	-0.009957902743887616	-0.001009993940584338	-0.3462804073640974	0.00818059293370548	0.01214200247553957	-0.3907890295891723	0.05794712556340926	0.002658051274190268	0.3350936729510728	-2.796599976999697	-29.98620889415426	-3.05364786495993	-0.243786527597902	13.78245257033592	-786.1697549108425	55.62792739705124	1.762167134057399	0.2219655447583277	1.468427289520987	-5.340899032858816	0.0662827128353657	-0.728627718775158	-0.01149165597895296	-4.325479363945116	-4.325479363945307	0.3646885466504413	0.008170146247815917	-0.8981823207005503	-0.1629776820328689	4.413087198738776e-10	3.85862534325521e-10	7.596314186436513e-09	6.286143987534859e-09	3.988368549296582e-10	-2.613006867540099e-09	5.942730157340522e-09
1.01	-0.408086847570105	-0.04903594810838254	0.7003023257245939	1.482395093406593	-0.2307212468295352	-0.06214015980626256	-0.4363306541038924	1.164976771332457	1.164976771332525	-0.02853897422336885	0.1745327296685106	0.2784458280372077	0.05893133068467317	0.01639960216998709	0.004968248406625204	0.02822837785142191	-0.09003368477098393	0.0019776543930124	-0.01672107555615483	-1.365498764085504e-05	-0.08967343217549266	-0.08967343217549091	0.005133556153817635	2.139018391523804e-06	-0.0189351010352634	-0.002617888594800109	-0.3461203798508032	0.008211868558254157	0.01215007412271529	-0.390577911096689	0.0580560302641879	0.002620249266160161	0.3349885953226425	-2.822686769991075	-29.93929662880444	-3.061430382150868	-0.2430265118878651	13.7072737879608	-785.9764469507423	55.5906915914467	1.750742801228972	0.2229577517694272	1.463439915638665	-5.321656444682749	0.06875153970541178	-0.7097034267248311	0.004606524528116273	-4.317132814885285	-4.317132814884881	0.3759240727712403	-0.004122254990440128	-0.8972156998737414	-0.1596269012764104	6.574234867309731e-10	1.260136859384578e-09	1.454661887202281e-08	1.141255163650575e-08	-8.983699715713668e-10	-4.949741478152556e-09	1.088253427600609e-08
1.02	-0.4078347579273781	-0.04897505546343924	0.7006578310621587	1.481228023526534	-0.2306980753959495	-0.06234310120727342	-0.4363311290258466	1.163864113991118	1.163864113991166	-0.02846895349131935	0.1745327460684144	0.2782116365026621	0.05889712385666495	0.03403662738652916	0.007214222604752917	0.04287101996896696	-0.1433967682033215	0.002656535060688319	-0.02386370434814984	-9.634916616303378e-05	-0.1328543984773103	-0.1328543984773034	0.008874384451191181	9.320479916163468e-07	-0.02790138398734531	-0.004223045015435117	-0.3459603523375032	0.008243144182801971	0.01215814576989852	-0.3903667926042057	0.05816493496496539	0.002582447258128401	0.3348835176942181	-2.865601079331344	-29.9011907112343	-3.068089280064017	-0.2454903982944274	13.64523876092693	-785.9219731565103	55.56771736169386	1.784130996815197	0.2266945136711102	1.466415701093166	-5.360669518840382	0.0661854392806198	-0.7244309710740973	-0.02951537328608298	-4.321115281408782	-4.321115281408223	0.3692579842657428	0.007939964338290603	-0.8959992528417737	-0.1624300353167143	9.171595193788179e-10	1.662817896786534e-09	2.129435571570871e-08	1.643612731603177e-08	-1.174918668931131e-09	-7.478262764740568e-09	1.593432960833876e-08
1.03	-0.4074061844565542	-0.04889158141575081	0.7011596395289013	1.479527298750033	-0.2306681301378944	-0.06261732754502335	-0.4363323129985824	1.16231969761954	1.162319697619526	-0.0283613276951851	0.1745327549861399	0.2778877301043876	0.05884683088335471	0.05165247120635486	0.009484866620339207	0.05748168092775668	-0.1967173423234523	0.003331861393786648	-0.03097401480883696	-9.982958194971031e-05	-0.1760311780754245	-0.176031178075416	0.01266207694336325	2.786419150154199e-07	-0.0368885723239322	-0.005838943415161161	-0.3455499355001187	0.008233779388533192	0.01218202125459128	-0.3901177024175159	0.05847737010403919	0.002526663542595864	0.3346632241983337	-2.9256991006152	-29.78613951115448	-3.067299355800312	-0.2511814784609433	13.5204340488781	-785.6704949815786	55.55412874196551	1.74647234225386	0.2278910087919218	1.457040408416213	-5.313124239517292	0.06811256894788087	-0.7031997313080145	0.02049168218420049	-4.316304871638626	-4.316304871638717	0.3852241636899599	-0.004149074000292002	-0.901380946796706	-0.161671797205863	1.177340666983711e-09	2.060686757783823e-09	2.804002554059972e-08	2.145865368974712e-08	-1.441052487422102e-09	-1.000874105822629e-08	2.098726770815783e-08
